<mxfile host="app.diagrams.net" modified="2024-04-19T20:56:45.762Z" agent="Mozilla/5.0 (Windows NT 10.0; Win64; x64) AppleWebKit/537.36 (KHTML, like Gecko) Chrome/123.0.0.0 Safari/537.36 Edg/123.0.0.0" etag="sLCOV9lZyDewqplKxLbE" version="24.2.5" type="device" pages="3">
  <diagram name="Page-1" id="fdjMZI4ZCxHSKoNP9T0k">
    <mxGraphModel dx="1221" dy="654" grid="1" gridSize="10" guides="1" tooltips="1" connect="1" arrows="1" fold="1" page="1" pageScale="1" pageWidth="827" pageHeight="1169" math="0" shadow="0">
      <root>
        <mxCell id="0" />
        <mxCell id="1" parent="0" />
        <mxCell id="SodQSrbPSN-j6QDCCie8-29" value="" style="group" parent="1" vertex="1" connectable="0">
          <mxGeometry x="220" y="100" width="530" height="60" as="geometry" />
        </mxCell>
        <mxCell id="SodQSrbPSN-j6QDCCie8-24" value="" style="edgeStyle=orthogonalEdgeStyle;rounded=0;orthogonalLoop=1;jettySize=auto;html=1;" parent="SodQSrbPSN-j6QDCCie8-29" source="SodQSrbPSN-j6QDCCie8-6" edge="1">
          <mxGeometry relative="1" as="geometry">
            <mxPoint x="410" y="30" as="targetPoint" />
          </mxGeometry>
        </mxCell>
        <mxCell id="SodQSrbPSN-j6QDCCie8-28" value="" style="edgeStyle=orthogonalEdgeStyle;rounded=0;orthogonalLoop=1;jettySize=auto;html=1;" parent="SodQSrbPSN-j6QDCCie8-29" source="SodQSrbPSN-j6QDCCie8-6" target="SodQSrbPSN-j6QDCCie8-27" edge="1">
          <mxGeometry relative="1" as="geometry" />
        </mxCell>
        <mxCell id="SodQSrbPSN-j6QDCCie8-6" value="Create environment provider" style="whiteSpace=wrap;html=1;rounded=1;" parent="SodQSrbPSN-j6QDCCie8-29" vertex="1">
          <mxGeometry x="210" width="120" height="60" as="geometry" />
        </mxCell>
        <mxCell id="SodQSrbPSN-j6QDCCie8-22" value="" style="edgeStyle=orthogonalEdgeStyle;rounded=0;orthogonalLoop=1;jettySize=auto;html=1;" parent="SodQSrbPSN-j6QDCCie8-29" source="SodQSrbPSN-j6QDCCie8-18" target="SodQSrbPSN-j6QDCCie8-6" edge="1">
          <mxGeometry relative="1" as="geometry" />
        </mxCell>
        <mxCell id="SodQSrbPSN-j6QDCCie8-18" value="Create environment provisioning role" style="rounded=1;whiteSpace=wrap;html=1;" parent="SodQSrbPSN-j6QDCCie8-29" vertex="1">
          <mxGeometry width="120" height="60" as="geometry" />
        </mxCell>
        <mxCell id="SodQSrbPSN-j6QDCCie8-27" value="Create environment&lt;br&gt;provider" style="whiteSpace=wrap;html=1;rounded=1;" parent="SodQSrbPSN-j6QDCCie8-29" vertex="1">
          <mxGeometry x="410" width="120" height="60" as="geometry" />
        </mxCell>
        <mxCell id="SodQSrbPSN-j6QDCCie8-32" value="" style="edgeStyle=orthogonalEdgeStyle;rounded=0;orthogonalLoop=1;jettySize=auto;html=1;entryX=0;entryY=0.5;entryDx=0;entryDy=0;" parent="1" source="SodQSrbPSN-j6QDCCie8-30" target="SodQSrbPSN-j6QDCCie8-18" edge="1">
          <mxGeometry relative="1" as="geometry">
            <mxPoint x="167" y="130" as="targetPoint" />
          </mxGeometry>
        </mxCell>
        <mxCell id="SodQSrbPSN-j6QDCCie8-30" value="Platform engineer" style="image;sketch=0;aspect=fixed;html=1;points=[];align=center;fontSize=12;image=img/lib/mscae/Person.svg;" parent="1" vertex="1">
          <mxGeometry x="50" y="105" width="37" height="50" as="geometry" />
        </mxCell>
        <mxCell id="SodQSrbPSN-j6QDCCie8-40" value="" style="edgeStyle=orthogonalEdgeStyle;rounded=0;orthogonalLoop=1;jettySize=auto;html=1;entryX=0;entryY=0.5;entryDx=0;entryDy=0;" parent="1" source="SodQSrbPSN-j6QDCCie8-41" target="SodQSrbPSN-j6QDCCie8-38" edge="1">
          <mxGeometry relative="1" as="geometry">
            <mxPoint x="167" y="240" as="targetPoint" />
          </mxGeometry>
        </mxCell>
        <mxCell id="SodQSrbPSN-j6QDCCie8-41" value="Application developer" style="image;sketch=0;aspect=fixed;html=1;points=[];align=center;fontSize=12;image=img/lib/mscae/Person.svg;" parent="1" vertex="1">
          <mxGeometry x="50" y="215" width="37" height="50" as="geometry" />
        </mxCell>
        <mxCell id="SodQSrbPSN-j6QDCCie8-42" value="" style="edgeStyle=orthogonalEdgeStyle;rounded=0;orthogonalLoop=1;jettySize=auto;html=1;" parent="1" source="SodQSrbPSN-j6QDCCie8-38" target="SodQSrbPSN-j6QDCCie8-6" edge="1">
          <mxGeometry relative="1" as="geometry" />
        </mxCell>
        <mxCell id="SodQSrbPSN-j6QDCCie8-43" value="Target" style="edgeLabel;html=1;align=center;verticalAlign=middle;resizable=0;points=[];" parent="SodQSrbPSN-j6QDCCie8-42" vertex="1" connectable="0">
          <mxGeometry x="0.0533" y="2" relative="1" as="geometry">
            <mxPoint as="offset" />
          </mxGeometry>
        </mxCell>
        <mxCell id="SodQSrbPSN-j6QDCCie8-38" value="Create application" style="rounded=1;whiteSpace=wrap;html=1;" parent="1" vertex="1">
          <mxGeometry x="430" y="210" width="120" height="60" as="geometry" />
        </mxCell>
      </root>
    </mxGraphModel>
  </diagram>
  <diagram id="S7umtmVMAxSzvAQBGj2f" name="Page-2">
    <mxGraphModel dx="3611" dy="2962" grid="1" gridSize="10" guides="1" tooltips="1" connect="1" arrows="1" fold="1" page="1" pageScale="1" pageWidth="1169" pageHeight="827" math="0" shadow="0">
      <root>
        <mxCell id="0" />
        <mxCell id="1" parent="0" />
        <mxCell id="x5YoCCET0R3nboP1B6UB-4" value="" style="group" vertex="1" connectable="0" parent="1">
          <mxGeometry x="-1150" y="-1505" width="1130" height="580" as="geometry" />
        </mxCell>
        <mxCell id="RBhH4DFFtfVz5wHEDppe-1" value="Region" style="sketch=0;outlineConnect=0;gradientColor=none;html=1;whiteSpace=wrap;fontSize=12;fontStyle=0;shape=mxgraph.aws4.group;grIcon=mxgraph.aws4.group_region;strokeColor=#C4D5DB;fillColor=none;verticalAlign=top;align=left;spacingLeft=30;fontColor=#879196;dashed=1;movable=1;resizable=1;rotatable=1;deletable=1;editable=1;locked=0;connectable=1;strokeWidth=2;" vertex="1" parent="x5YoCCET0R3nboP1B6UB-4">
          <mxGeometry width="1130" height="580" as="geometry" />
        </mxCell>
        <mxCell id="RBhH4DFFtfVz5wHEDppe-5" value="Availability zone" style="sketch=0;outlineConnect=0;gradientColor=none;html=1;whiteSpace=wrap;fontSize=12;fontStyle=0;shape=mxgraph.aws4.group;grIcon=mxgraph.aws4.group_availability_zone;strokeColor=#C4D5DB;fillColor=none;verticalAlign=top;align=left;spacingLeft=30;fontColor=#545B64;dashed=1;movable=1;resizable=1;rotatable=1;deletable=1;editable=1;locked=0;connectable=1;strokeWidth=2;" vertex="1" parent="x5YoCCET0R3nboP1B6UB-4">
          <mxGeometry x="42" y="40" width="300" height="500" as="geometry" />
        </mxCell>
        <mxCell id="x5YoCCET0R3nboP1B6UB-2" value="Availability zone" style="sketch=0;outlineConnect=0;gradientColor=none;html=1;whiteSpace=wrap;fontSize=12;fontStyle=0;shape=mxgraph.aws4.group;grIcon=mxgraph.aws4.group_availability_zone;strokeColor=#C4D5DB;fillColor=none;verticalAlign=top;align=left;spacingLeft=30;fontColor=#545B64;dashed=1;movable=1;resizable=1;rotatable=1;deletable=1;editable=1;locked=0;connectable=1;strokeWidth=2;" vertex="1" parent="x5YoCCET0R3nboP1B6UB-4">
          <mxGeometry x="420" y="40" width="300" height="500" as="geometry" />
        </mxCell>
        <mxCell id="x5YoCCET0R3nboP1B6UB-3" value="Availability zone" style="sketch=0;outlineConnect=0;gradientColor=none;html=1;whiteSpace=wrap;fontSize=12;fontStyle=0;shape=mxgraph.aws4.group;grIcon=mxgraph.aws4.group_availability_zone;strokeColor=#C4D5DB;fillColor=none;verticalAlign=top;align=left;spacingLeft=30;fontColor=#545B64;dashed=1;movable=1;resizable=1;rotatable=1;deletable=1;editable=1;locked=0;connectable=1;strokeWidth=2;" vertex="1" parent="x5YoCCET0R3nboP1B6UB-4">
          <mxGeometry x="800" y="40" width="300" height="500" as="geometry" />
        </mxCell>
        <mxCell id="x5YoCCET0R3nboP1B6UB-5" value="AWS Account" style="points=[[0,0],[0.25,0],[0.5,0],[0.75,0],[1,0],[1,0.25],[1,0.5],[1,0.75],[1,1],[0.75,1],[0.5,1],[0.25,1],[0,1],[0,0.75],[0,0.5],[0,0.25]];outlineConnect=0;gradientColor=none;html=1;whiteSpace=wrap;fontSize=12;fontStyle=0;container=1;pointerEvents=0;collapsible=0;recursiveResize=0;shape=mxgraph.aws4.group;grIcon=mxgraph.aws4.group_account;strokeColor=#CD2264;fillColor=none;verticalAlign=top;align=left;spacingLeft=30;fontColor=#CD2264;dashed=0;" vertex="1" parent="1">
          <mxGeometry x="-1160" y="-1530" width="1130" height="630" as="geometry" />
        </mxCell>
      </root>
    </mxGraphModel>
  </diagram>
  <diagram name="Copie de Page-2" id="tUK1e1Y2FI6m3mknLEIn">
    <mxGraphModel dx="3611" dy="2962" grid="1" gridSize="10" guides="1" tooltips="1" connect="1" arrows="1" fold="1" page="1" pageScale="1" pageWidth="1169" pageHeight="827" math="0" shadow="0">
      <root>
        <mxCell id="6nE7W45JQlqCYRWxNlfK-0" />
        <mxCell id="6nE7W45JQlqCYRWxNlfK-1" parent="6nE7W45JQlqCYRWxNlfK-0" />
        <mxCell id="JMRRjU4FPU76ZOS7B0I3-24" value="" style="group" vertex="1" connectable="0" parent="6nE7W45JQlqCYRWxNlfK-1">
          <mxGeometry x="-1154" y="-1560" width="1140" height="660" as="geometry" />
        </mxCell>
        <mxCell id="JMRRjU4FPU76ZOS7B0I3-4" value="" style="group;movable=1;resizable=1;rotatable=1;deletable=1;editable=1;locked=0;connectable=1;" vertex="1" connectable="0" parent="JMRRjU4FPU76ZOS7B0I3-24">
          <mxGeometry width="1140" height="660" as="geometry" />
        </mxCell>
        <mxCell id="6nE7W45JQlqCYRWxNlfK-7" value="AWS Account" style="points=[[0,0],[0.25,0],[0.5,0],[0.75,0],[1,0],[1,0.25],[1,0.5],[1,0.75],[1,1],[0.75,1],[0.5,1],[0.25,1],[0,1],[0,0.75],[0,0.5],[0,0.25]];outlineConnect=0;gradientColor=none;html=1;whiteSpace=wrap;fontSize=12;fontStyle=0;container=1;pointerEvents=0;collapsible=0;recursiveResize=0;shape=mxgraph.aws4.group;grIcon=mxgraph.aws4.group_account;strokeColor=#CD2264;fillColor=none;verticalAlign=top;align=left;spacingLeft=30;fontColor=#CD2264;dashed=0;movable=1;resizable=1;rotatable=1;deletable=1;editable=1;locked=0;connectable=1;" vertex="1" parent="JMRRjU4FPU76ZOS7B0I3-4">
          <mxGeometry width="1140" height="660" as="geometry" />
        </mxCell>
        <mxCell id="6nE7W45JQlqCYRWxNlfK-3" value="Region" style="sketch=0;outlineConnect=0;gradientColor=none;html=1;whiteSpace=wrap;fontSize=12;fontStyle=0;shape=mxgraph.aws4.group;grIcon=mxgraph.aws4.group_region;strokeColor=#C4D5DB;fillColor=none;verticalAlign=top;align=left;spacingLeft=30;fontColor=#879196;dashed=1;movable=1;resizable=1;rotatable=1;deletable=1;editable=1;locked=0;connectable=1;strokeWidth=2;" vertex="1" parent="6nE7W45JQlqCYRWxNlfK-7">
          <mxGeometry x="20" y="40" width="1100" height="600" as="geometry" />
        </mxCell>
        <mxCell id="6nE7W45JQlqCYRWxNlfK-4" value="Availability zone" style="sketch=0;outlineConnect=0;gradientColor=none;html=1;whiteSpace=wrap;fontSize=12;fontStyle=0;shape=mxgraph.aws4.group;grIcon=mxgraph.aws4.group_availability_zone;strokeColor=#C4D5DB;fillColor=none;verticalAlign=top;align=left;spacingLeft=30;fontColor=#545B64;dashed=1;movable=1;resizable=1;rotatable=1;deletable=1;editable=1;locked=0;connectable=1;strokeWidth=2;" vertex="1" parent="6nE7W45JQlqCYRWxNlfK-7">
          <mxGeometry x="40" y="80" width="300" height="530" as="geometry" />
        </mxCell>
        <mxCell id="6nE7W45JQlqCYRWxNlfK-5" value="Availability zone" style="sketch=0;outlineConnect=0;gradientColor=none;html=1;whiteSpace=wrap;fontSize=12;fontStyle=0;shape=mxgraph.aws4.group;grIcon=mxgraph.aws4.group_availability_zone;strokeColor=#C4D5DB;fillColor=none;verticalAlign=top;align=left;spacingLeft=30;fontColor=#545B64;dashed=1;movable=1;resizable=1;rotatable=1;deletable=1;editable=1;locked=0;connectable=1;strokeWidth=2;" vertex="1" parent="6nE7W45JQlqCYRWxNlfK-7">
          <mxGeometry x="425" y="80" width="300" height="530" as="geometry" />
        </mxCell>
        <mxCell id="6nE7W45JQlqCYRWxNlfK-6" value="Availability zone" style="sketch=0;outlineConnect=0;gradientColor=none;html=1;whiteSpace=wrap;fontSize=12;fontStyle=0;shape=mxgraph.aws4.group;grIcon=mxgraph.aws4.group_availability_zone;strokeColor=#C4D5DB;fillColor=none;verticalAlign=top;align=left;spacingLeft=30;fontColor=#545B64;dashed=1;movable=1;resizable=1;rotatable=1;deletable=1;editable=1;locked=0;connectable=1;strokeWidth=2;" vertex="1" parent="6nE7W45JQlqCYRWxNlfK-7">
          <mxGeometry x="801" y="80" width="300" height="530" as="geometry" />
        </mxCell>
        <mxCell id="JMRRjU4FPU76ZOS7B0I3-2" value="VPC" style="points=[[0,0],[0.25,0],[0.5,0],[0.75,0],[1,0],[1,0.25],[1,0.5],[1,0.75],[1,1],[0.75,1],[0.5,1],[0.25,1],[0,1],[0,0.75],[0,0.5],[0,0.25]];outlineConnect=0;gradientColor=none;html=1;whiteSpace=wrap;fontSize=12;fontStyle=0;container=0;pointerEvents=0;collapsible=0;recursiveResize=0;shape=mxgraph.aws4.group;grIcon=mxgraph.aws4.group_vpc2;strokeColor=#8C4FFF;fillColor=none;verticalAlign=top;align=left;spacingLeft=30;fontColor=#AAB7B8;dashed=0;movable=1;resizable=1;rotatable=1;deletable=1;editable=1;locked=0;connectable=1;" vertex="1" parent="JMRRjU4FPU76ZOS7B0I3-4">
          <mxGeometry x="50" y="120" width="1030" height="430" as="geometry" />
        </mxCell>
        <mxCell id="JMRRjU4FPU76ZOS7B0I3-11" value="" style="group;movable=1;resizable=1;rotatable=1;deletable=1;editable=1;locked=0;connectable=1;" vertex="1" connectable="0" parent="JMRRjU4FPU76ZOS7B0I3-24">
          <mxGeometry x="110" y="210" width="150" height="310" as="geometry" />
        </mxCell>
        <mxCell id="JMRRjU4FPU76ZOS7B0I3-6" value="N&lt;span style=&quot;background-color: initial;&quot;&gt;ACL&lt;/span&gt;" style="shape=mxgraph.ibm.box;prType=subnet;fontStyle=0;verticalAlign=top;align=left;spacingLeft=32;spacingTop=4;fillColor=none;rounded=0;whiteSpace=wrap;html=1;strokeColor=#000000;strokeWidth=1;container=1;spacing=-4;collapsible=0;expand=0;recursiveResize=0;dashed=1;movable=1;resizable=1;rotatable=1;deletable=1;editable=1;locked=0;connectable=1;" vertex="1" parent="JMRRjU4FPU76ZOS7B0I3-11">
          <mxGeometry width="150" height="151.21951219512192" as="geometry" />
        </mxCell>
        <mxCell id="JMRRjU4FPU76ZOS7B0I3-3" value="Public subnet" style="points=[[0,0],[0.25,0],[0.5,0],[0.75,0],[1,0],[1,0.25],[1,0.5],[1,0.75],[1,1],[0.75,1],[0.5,1],[0.25,1],[0,1],[0,0.75],[0,0.5],[0,0.25]];outlineConnect=0;gradientColor=none;html=1;whiteSpace=wrap;fontSize=12;fontStyle=0;container=1;pointerEvents=0;collapsible=0;recursiveResize=0;shape=mxgraph.aws4.group;grIcon=mxgraph.aws4.group_security_group;grStroke=0;strokeColor=#7AA116;fillColor=#F2F6E8;verticalAlign=top;align=left;spacingLeft=30;fontColor=#248814;dashed=0;movable=1;resizable=1;rotatable=1;deletable=1;editable=1;locked=0;connectable=1;" vertex="1" parent="JMRRjU4FPU76ZOS7B0I3-6">
          <mxGeometry x="7.5" y="22.68292682926829" width="135" height="120.97560975609754" as="geometry" />
        </mxCell>
        <mxCell id="JMRRjU4FPU76ZOS7B0I3-10" value="" style="group;movable=1;resizable=1;rotatable=1;deletable=1;editable=1;locked=0;connectable=1;" vertex="1" connectable="0" parent="JMRRjU4FPU76ZOS7B0I3-11">
          <mxGeometry y="158.78048780487802" width="150" height="151.21951219512192" as="geometry" />
        </mxCell>
        <mxCell id="JMRRjU4FPU76ZOS7B0I3-7" value="NACL" style="shape=mxgraph.ibm.box;prType=subnet;fontStyle=0;verticalAlign=top;align=left;spacingLeft=32;spacingTop=4;fillColor=none;rounded=0;whiteSpace=wrap;html=1;strokeColor=#000000;strokeWidth=1;container=0;spacing=-4;collapsible=0;expand=0;recursiveResize=0;dashed=1;movable=1;resizable=1;rotatable=1;deletable=1;editable=1;locked=0;connectable=1;" vertex="1" parent="JMRRjU4FPU76ZOS7B0I3-10">
          <mxGeometry width="150" height="151.21951219512192" as="geometry" />
        </mxCell>
        <mxCell id="JMRRjU4FPU76ZOS7B0I3-9" value="Private subnet" style="points=[[0,0],[0.25,0],[0.5,0],[0.75,0],[1,0],[1,0.25],[1,0.5],[1,0.75],[1,1],[0.75,1],[0.5,1],[0.25,1],[0,1],[0,0.75],[0,0.5],[0,0.25]];outlineConnect=0;gradientColor=none;html=1;whiteSpace=wrap;fontSize=12;fontStyle=0;container=1;pointerEvents=0;collapsible=0;recursiveResize=0;shape=mxgraph.aws4.group;grIcon=mxgraph.aws4.group_security_group;grStroke=0;strokeColor=#00A4A6;fillColor=#E6F6F7;verticalAlign=top;align=left;spacingLeft=30;fontColor=#147EBA;dashed=0;movable=1;resizable=1;rotatable=1;deletable=1;editable=1;locked=0;connectable=1;" vertex="1" parent="JMRRjU4FPU76ZOS7B0I3-10">
          <mxGeometry x="7.5" y="22.68292682926829" width="135" height="120.97560975609754" as="geometry" />
        </mxCell>
        <mxCell id="JMRRjU4FPU76ZOS7B0I3-12" value="" style="group;movable=1;resizable=1;rotatable=1;deletable=1;editable=1;locked=0;connectable=1;" vertex="1" connectable="0" parent="JMRRjU4FPU76ZOS7B0I3-24">
          <mxGeometry x="860" y="210" width="150" height="310" as="geometry" />
        </mxCell>
        <mxCell id="JMRRjU4FPU76ZOS7B0I3-13" value="N&lt;span style=&quot;background-color: initial;&quot;&gt;ACL&lt;/span&gt;" style="shape=mxgraph.ibm.box;prType=subnet;fontStyle=0;verticalAlign=top;align=left;spacingLeft=32;spacingTop=4;fillColor=none;rounded=0;whiteSpace=wrap;html=1;strokeColor=#000000;strokeWidth=1;container=1;spacing=-4;collapsible=0;expand=0;recursiveResize=0;dashed=1;movable=1;resizable=1;rotatable=1;deletable=1;editable=1;locked=0;connectable=1;" vertex="1" parent="JMRRjU4FPU76ZOS7B0I3-12">
          <mxGeometry width="150" height="151.21951219512192" as="geometry" />
        </mxCell>
        <mxCell id="JMRRjU4FPU76ZOS7B0I3-14" value="Public subnet" style="points=[[0,0],[0.25,0],[0.5,0],[0.75,0],[1,0],[1,0.25],[1,0.5],[1,0.75],[1,1],[0.75,1],[0.5,1],[0.25,1],[0,1],[0,0.75],[0,0.5],[0,0.25]];outlineConnect=0;gradientColor=none;html=1;whiteSpace=wrap;fontSize=12;fontStyle=0;container=1;pointerEvents=0;collapsible=0;recursiveResize=0;shape=mxgraph.aws4.group;grIcon=mxgraph.aws4.group_security_group;grStroke=0;strokeColor=#7AA116;fillColor=#F2F6E8;verticalAlign=top;align=left;spacingLeft=30;fontColor=#248814;dashed=0;movable=1;resizable=1;rotatable=1;deletable=1;editable=1;locked=0;connectable=1;" vertex="1" parent="JMRRjU4FPU76ZOS7B0I3-13">
          <mxGeometry x="7.5" y="22.68292682926829" width="135" height="120.97560975609754" as="geometry" />
        </mxCell>
        <mxCell id="JMRRjU4FPU76ZOS7B0I3-15" value="" style="group;movable=1;resizable=1;rotatable=1;deletable=1;editable=1;locked=0;connectable=1;" vertex="1" connectable="0" parent="JMRRjU4FPU76ZOS7B0I3-12">
          <mxGeometry y="158.78048780487802" width="150" height="151.21951219512192" as="geometry" />
        </mxCell>
        <mxCell id="JMRRjU4FPU76ZOS7B0I3-16" value="NACL" style="shape=mxgraph.ibm.box;prType=subnet;fontStyle=0;verticalAlign=top;align=left;spacingLeft=32;spacingTop=4;fillColor=none;rounded=0;whiteSpace=wrap;html=1;strokeColor=#000000;strokeWidth=1;container=0;spacing=-4;collapsible=0;expand=0;recursiveResize=0;dashed=1;movable=1;resizable=1;rotatable=1;deletable=1;editable=1;locked=0;connectable=1;" vertex="1" parent="JMRRjU4FPU76ZOS7B0I3-15">
          <mxGeometry width="150" height="151.21951219512192" as="geometry" />
        </mxCell>
        <mxCell id="JMRRjU4FPU76ZOS7B0I3-17" value="Private subnet" style="points=[[0,0],[0.25,0],[0.5,0],[0.75,0],[1,0],[1,0.25],[1,0.5],[1,0.75],[1,1],[0.75,1],[0.5,1],[0.25,1],[0,1],[0,0.75],[0,0.5],[0,0.25]];outlineConnect=0;gradientColor=none;html=1;whiteSpace=wrap;fontSize=12;fontStyle=0;container=1;pointerEvents=0;collapsible=0;recursiveResize=0;shape=mxgraph.aws4.group;grIcon=mxgraph.aws4.group_security_group;grStroke=0;strokeColor=#00A4A6;fillColor=#E6F6F7;verticalAlign=top;align=left;spacingLeft=30;fontColor=#147EBA;dashed=0;movable=1;resizable=1;rotatable=1;deletable=1;editable=1;locked=0;connectable=1;" vertex="1" parent="JMRRjU4FPU76ZOS7B0I3-15">
          <mxGeometry x="7.5" y="22.68292682926829" width="135" height="120.97560975609754" as="geometry" />
        </mxCell>
        <mxCell id="JMRRjU4FPU76ZOS7B0I3-18" value="" style="group;movable=1;resizable=1;rotatable=1;deletable=1;editable=1;locked=0;connectable=1;" vertex="1" connectable="0" parent="JMRRjU4FPU76ZOS7B0I3-24">
          <mxGeometry x="496" y="210" width="150" height="310" as="geometry" />
        </mxCell>
        <mxCell id="JMRRjU4FPU76ZOS7B0I3-19" value="N&lt;span style=&quot;background-color: initial;&quot;&gt;ACL&lt;/span&gt;" style="shape=mxgraph.ibm.box;prType=subnet;fontStyle=0;verticalAlign=top;align=left;spacingLeft=32;spacingTop=4;fillColor=none;rounded=0;whiteSpace=wrap;html=1;strokeColor=#000000;strokeWidth=1;container=1;spacing=-4;collapsible=0;expand=0;recursiveResize=0;dashed=1;movable=1;resizable=1;rotatable=1;deletable=1;editable=1;locked=0;connectable=1;" vertex="1" parent="JMRRjU4FPU76ZOS7B0I3-18">
          <mxGeometry width="150" height="151.21951219512192" as="geometry" />
        </mxCell>
        <mxCell id="JMRRjU4FPU76ZOS7B0I3-20" value="Public subnet" style="points=[[0,0],[0.25,0],[0.5,0],[0.75,0],[1,0],[1,0.25],[1,0.5],[1,0.75],[1,1],[0.75,1],[0.5,1],[0.25,1],[0,1],[0,0.75],[0,0.5],[0,0.25]];outlineConnect=0;gradientColor=none;html=1;whiteSpace=wrap;fontSize=12;fontStyle=0;container=1;pointerEvents=0;collapsible=0;recursiveResize=0;shape=mxgraph.aws4.group;grIcon=mxgraph.aws4.group_security_group;grStroke=0;strokeColor=#7AA116;fillColor=#F2F6E8;verticalAlign=top;align=left;spacingLeft=30;fontColor=#248814;dashed=0;movable=1;resizable=1;rotatable=1;deletable=1;editable=1;locked=0;connectable=1;" vertex="1" parent="JMRRjU4FPU76ZOS7B0I3-19">
          <mxGeometry x="7.5" y="22.68292682926829" width="135" height="120.97560975609754" as="geometry" />
        </mxCell>
        <mxCell id="JMRRjU4FPU76ZOS7B0I3-21" value="" style="group;movable=1;resizable=1;rotatable=1;deletable=1;editable=1;locked=0;connectable=1;" vertex="1" connectable="0" parent="JMRRjU4FPU76ZOS7B0I3-18">
          <mxGeometry y="158.78048780487802" width="150" height="151.21951219512192" as="geometry" />
        </mxCell>
        <mxCell id="JMRRjU4FPU76ZOS7B0I3-22" value="NACL" style="shape=mxgraph.ibm.box;prType=subnet;fontStyle=0;verticalAlign=top;align=left;spacingLeft=32;spacingTop=4;fillColor=none;rounded=0;whiteSpace=wrap;html=1;strokeColor=#000000;strokeWidth=1;container=0;spacing=-4;collapsible=0;expand=0;recursiveResize=0;dashed=1;movable=1;resizable=1;rotatable=1;deletable=1;editable=1;locked=0;connectable=1;" vertex="1" parent="JMRRjU4FPU76ZOS7B0I3-21">
          <mxGeometry width="150" height="151.21951219512192" as="geometry" />
        </mxCell>
        <mxCell id="JMRRjU4FPU76ZOS7B0I3-23" value="Private subnet" style="points=[[0,0],[0.25,0],[0.5,0],[0.75,0],[1,0],[1,0.25],[1,0.5],[1,0.75],[1,1],[0.75,1],[0.5,1],[0.25,1],[0,1],[0,0.75],[0,0.5],[0,0.25]];outlineConnect=0;gradientColor=none;html=1;whiteSpace=wrap;fontSize=12;fontStyle=0;container=1;pointerEvents=0;collapsible=0;recursiveResize=0;shape=mxgraph.aws4.group;grIcon=mxgraph.aws4.group_security_group;grStroke=0;strokeColor=#00A4A6;fillColor=#E6F6F7;verticalAlign=top;align=left;spacingLeft=30;fontColor=#147EBA;dashed=0;movable=1;resizable=1;rotatable=1;deletable=1;editable=1;locked=0;connectable=1;" vertex="1" parent="JMRRjU4FPU76ZOS7B0I3-21">
          <mxGeometry x="7.5" y="22.68292682926829" width="135" height="120.97560975609754" as="geometry" />
        </mxCell>
      </root>
    </mxGraphModel>
  </diagram>
</mxfile>
